<svg xmlns="http://www.w3.org/2000/svg" viewBox="0 0 91.82 85"><defs><style>.cls-1,.cls-3,.cls-4{fill:none;stroke:#000;stroke-miterlimit:10;stroke-width:3px;}.cls-2{fill:#16d3b3;}.cls-3,.cls-4{stroke-linecap:round;}.cls-3{stroke-dasharray:3 5;}</style></defs><g id="Warstwa_2" data-name="Warstwa 2"><g id="Warstwa_1-2" data-name="Warstwa 1"><path class="cls-1" d="M50.32,77.5h0a6.32,6.32,0,0,0,6.36,6h0a6.49,6.49,0,0,0,6-4L77.92,5.54a6.49,6.49,0,0,1,6-4h0a6.32,6.32,0,0,1,6.36,6h0"/><path class="cls-1" d="M7.86,83.5h0a6.32,6.32,0,0,1-6.36-6h0"/><line class="cls-1" x1="55.82" y1="83.5" x2="7.32" y2="83.5"/><circle class="cls-2" cx="45.32" cy="43.5" r="18"/><line class="cls-1" x1="83.82" y1="1.5" x2="34.82" y2="1.5"/><path class="cls-3" d="M66.32,17.5l-2-1.14a5.15,5.15,0,0,0-7.28,2.44L41.76,54.46a5.2,5.2,0,0,1-1.28,1.8l-3.62,3.26a4.72,4.72,0,0,1-7.68-2.16l-.86-2.86"/><line class="cls-4" x1="30.32" y1="45.5" x2="35.32" y2="51.5"/><line class="cls-4" x1="29.32" y1="51.5" x2="35.32" y2="45.5"/><line class="cls-1" x1="51.16" y1="79" x2="2.66" y2="79"/><path class="cls-1" d="M27.39,14l1.74-8.49a6.49,6.49,0,0,1,6-4h0"/><path class="cls-1" d="M14,79l.26-1.5,14.8-72"/><line class="cls-1" x1="89.82" y1="6" x2="77.82" y2="6"/></g></g></svg>