<svg xmlns="http://www.w3.org/2000/svg" viewBox="0 0 60.57 84.5"><defs><style>.cls-1{fill:#16d3b3;}.cls-2{fill:none;stroke:#000;stroke-miterlimit:10;stroke-width:3px;}</style></defs><g id="Warstwa_2" data-name="Warstwa 2"><g id="Warstwa_1-2" data-name="Warstwa 1"><rect class="cls-1" x="24.79" y="48" width="10" height="15"/><path class="cls-2" d="M54.37,1.5a4.68,4.68,0,0,1,4.68,5.06C57.24,26.71,45.05,49,30.29,49S3.33,26.71,1.52,6.56A4.68,4.68,0,0,1,6.2,1.5Z"/><path class="cls-2" d="M41.56,83H18a1.69,1.69,0,0,1-.73-3.24l8-7.47h9l8,7.47A1.69,1.69,0,0,1,41.56,83Z"/><line class="cls-2" x1="34.29" y1="72.29" x2="34.29" y2="48.5"/><circle class="cls-1" cx="29.79" cy="24" r="15"/><line class="cls-2" x1="25.29" y1="72.29" x2="25.29" y2="48.5"/><path d="M23.44,35c0-.46,0-.9-.07-1.33s0-.88,0-1.34a.67.67,0,0,1,.16-.47,1.24,1.24,0,0,1,.48-.3,3.75,3.75,0,0,1,.87-.2c.36-.05.79-.08,1.3-.11s1.09,0,1.76,0l.33-13.74-1.08.08c-.34,0-.65.06-.94.1l-.74.13-.67.13a5.21,5.21,0,0,1-.47-1.17,6,6,0,0,1-.14-1.32c0-.17.19-.34.56-.52a10,10,0,0,1,1.46-.54c.6-.18,1.24-.35,1.91-.51s1.31-.27,1.91-.36a11.58,11.58,0,0,1,1.48-.12,3,3,0,0,1,.57,0,1.15,1.15,0,0,1,.47.16l-.43,17.63h2a21.39,21.39,0,0,0,2.2-.15,29.14,29.14,0,0,1-.11,3.12c-.07.54-.34.81-.79.81Z"/></g></g></svg>